<svg fill="none" height="321.738442" viewBox="0 0 86 89" width="310.811476" xmlns="http://www.w3.org/2000/svg"><g fill="#00cde6"><path d="m37.6 38.7-6.1-6v38c2.5 1 5 1.6 7.7 2v-30c0-1.5-.6-3-1.6-4z"/><path d="m32.7 0h-16.5v51.7c0 7.2 4 12 7.6 14.8v-58.7h7.7v24.8l6.5-6.5c.7-.7 1.2-1.8 1.2-2.9v-16.7c0-3.5-3-6.4-6.5-6.4zm37.1 51.8v-6a4 4 0 0 0 -1.2-2.8l-6.4-6.5v13.7c0 3.6-.7 7.4-4.6 10.3l-3.1 2v-54.8h7.7v21l6.4-6.5a4 4 0 0 0 1.2-3v-19h-16.5a6.4 6.4 0 0 0 -6.5 6.4v66.2c11.2-1.4 23-8.8 23-20.9"/><path d="m8.5 51.7v-51.6h-7.7v52.1c0 20.5 18.4 34.4 38.4 36v-7.8c-15.6-1.4-30.7-12.3-30.7-28.7zm69-51.7v51.7c0 16.4-15.1 27.2-30.7 28.7v7.8c20-1.6 38.4-15.5 38.4-36v-52.1h-7.7z"/></g></svg>