<svg xmlns="http://www.w3.org/2000/svg" viewBox="0 0 292 300" width="292" height="300">
	<style>
		tspan { white-space:pre }
		.shp0 { fill: #bfc3cc } 
		.shp1 { fill: #0a0a42 } 
		.shp2 { fill: #0f7cb2 } 
	</style>
	<g >
		<path class="shp0" d="M46.48 0.1C46.47 0.17 47.55 1.74 48.86 3.6C50.18 5.46 51.42 7.2 51.63 7.47L52 7.97C51.05 7.85 49.87 7.76 48.76 7.69C47.56 7.62 45.62 7.59 43.96 7.63C42.42 7.67 40.21 7.78 39.04 7.87C37.87 7.97 35.99 8.15 34.85 8.27C33.72 8.39 31.98 8.59 31 8.72C30.02 8.84 29.2 8.95 29.18 8.96C29.16 8.98 29.8 9.87 30.59 10.94C31.38 12.02 32.46 13.47 33 14.18C33.53 14.89 33.97 15.49 33.96 15.52C33.96 15.55 33.62 15.75 33.2 15.96C32.79 16.18 31.75 16.77 30.89 17.29C30.03 17.8 28.85 18.55 28.26 18.95C27.68 19.36 26.75 20.03 26.2 20.44C25.64 20.85 24.69 21.61 24.07 22.12C23.46 22.63 22.11 23.88 21.07 24.89C20.04 25.91 18.68 27.34 18.06 28.07C17.43 28.79 16.51 29.92 16 30.58C15.49 31.23 14.55 32.54 13.91 33.49C13.28 34.45 12.34 35.95 11.83 36.84C11.32 37.73 10.47 39.37 9.93 40.47C9.4 41.58 8.58 43.44 8.12 44.6C7.66 45.77 7.02 47.5 6.71 48.46C6.39 49.41 5.86 51.17 5.54 52.36C5.21 53.56 4.74 55.49 4.49 56.66C4.23 57.83 3.88 59.74 3.69 60.9C3.5 62.07 3.32 63.16 3.29 63.33C3.26 63.5 3.25 63.64 3.27 63.64C3.28 63.65 4.43 63.78 5.82 63.95C7.22 64.12 8.4 64.3 8.45 64.35C8.5 64.4 8.59 64.95 8.63 65.58C8.68 66.2 8.84 67.31 8.99 68.05C9.14 68.79 9.39 69.84 9.55 70.39C9.72 70.95 10.08 71.98 10.35 72.68C10.63 73.39 11.15 74.55 11.51 75.25C11.87 75.96 12.55 77.14 13.02 77.87C13.49 78.61 14.3 79.79 14.83 80.5C15.36 81.2 16.24 82.29 16.77 82.9C17.3 83.51 18.54 84.8 19.51 85.77C20.48 86.73 21.93 88.08 22.73 88.76C23.53 89.44 24.62 90.34 25.14 90.75L26.1 91.5C22 99.63 20.32 103.05 19.72 104.34C19.12 105.63 18 108.09 17.23 109.81C16.47 111.53 15.4 113.99 14.86 115.28C14.32 116.57 13.42 118.75 12.87 120.13C12.32 121.52 11.31 124.13 10.63 125.94C9.95 127.75 8.94 130.59 8.38 132.25C7.82 133.91 7.04 136.29 6.65 137.55C6.25 138.81 5.61 140.97 5.21 142.35C4.82 143.73 4.21 145.97 3.87 147.32C3.53 148.67 3.05 150.68 2.81 151.79C2.56 152.89 2.21 154.6 2.02 155.58C1.83 156.56 1.53 158.3 1.35 159.43C1.17 160.57 0.92 162.33 0.79 163.34C0.67 164.36 0.49 166.06 0.4 167.14C0.31 168.21 0.18 170.25 0.11 171.66C0.02 173.51 0.02 174.89 0.11 176.57C0.18 177.86 0.31 179.82 0.4 180.93C0.49 182.03 0.64 183.92 0.73 185.11C0.81 186.31 0.91 187.3 0.95 187.32C0.98 187.33 1.95 186.84 3.1 186.21C4.25 185.59 5.99 184.62 6.96 184.06C7.93 183.51 8.74 183.07 8.75 183.1C8.77 183.13 9.05 184.21 9.38 185.5C9.7 186.79 10.31 189.05 10.73 190.53C11.15 192 11.77 194.09 12.12 195.16C12.46 196.24 13.07 198.07 13.48 199.24C13.88 200.4 14.67 202.54 15.22 203.98C15.77 205.43 16.59 207.46 17.04 208.5C17.48 209.55 18.2 211.18 18.63 212.13C19.06 213.08 19.89 214.84 20.47 216.04C21.04 217.24 21.99 219.1 22.56 220.17C23.13 221.25 24.1 223 24.72 224.08C25.33 225.15 26.41 226.96 27.12 228.1C27.83 229.23 28.86 230.84 29.42 231.67C29.97 232.5 31 233.98 31.7 234.96C32.41 235.95 33.56 237.5 34.27 238.43C34.98 239.35 36.12 240.78 36.8 241.61C37.48 242.44 38.61 243.77 39.31 244.57C40 245.36 41.47 246.97 42.57 248.14C43.66 249.31 45.35 251.02 46.32 251.94C47.29 252.87 48.64 254.13 49.32 254.74C49.99 255.35 51.05 256.27 51.66 256.8C52.28 257.33 53.46 258.3 54.29 258.97C55.12 259.64 56.7 260.86 57.81 261.68C58.91 262.51 60.85 263.87 62.11 264.71C63.37 265.56 65.1 266.67 65.96 267.19C66.82 267.72 68.07 268.45 68.73 268.83C69.39 269.21 69.95 269.52 69.98 269.52C70.01 269.52 70.47 268.7 71 267.71C71.53 266.71 72.35 265.24 72.82 264.45C73.29 263.66 73.7 263 73.73 262.98C73.76 262.96 74.76 263.63 75.96 264.46C77.16 265.3 79.17 266.74 80.43 267.67C81.69 268.59 83.7 270.1 84.9 271.02C86.09 271.93 88.31 273.66 89.81 274.87C91.32 276.07 93.63 277.96 94.95 279.06C96.27 280.16 98.61 282.14 100.14 283.47C101.67 284.79 103.66 286.53 104.55 287.32C105.45 288.12 107.47 289.95 109.06 291.4C110.65 292.84 112.43 294.47 113.03 295.01C113.62 295.56 114.41 296.21 114.78 296.46C115.24 296.77 115.68 296.96 116.17 297.07C116.57 297.15 117.55 297.34 118.35 297.49C119.15 297.64 120.73 297.88 121.87 298.04C123.01 298.19 124.39 298.37 124.94 298.43C125.5 298.5 127.41 298.7 129.19 298.88C130.97 299.06 133.48 299.29 134.77 299.38C136.06 299.47 138.02 299.6 139.13 299.66C140.24 299.73 142.27 299.83 143.65 299.89C145.04 299.95 147.78 300 149.74 300C151.71 300 154.37 299.95 155.66 299.89C156.95 299.82 158.99 299.7 160.19 299.61C161.38 299.51 163.22 299.34 164.26 299.22C165.31 299.09 166.99 298.86 168.01 298.71C169.02 298.55 170.73 298.25 171.8 298.03C172.88 297.82 174.19 297.54 174.71 297.41C175.23 297.29 175.96 297.04 176.33 296.87C176.7 296.7 177.4 296.26 177.89 295.9C178.38 295.53 179.36 294.69 180.07 294.01C180.78 293.34 182.41 291.84 183.7 290.67C184.99 289.5 187.13 287.59 188.45 286.42C189.77 285.25 192.14 283.19 193.71 281.85C195.28 280.5 197.69 278.47 199.07 277.34C200.45 276.2 202.65 274.42 203.98 273.38C205.3 272.34 207.46 270.68 208.78 269.69C210.1 268.7 212.24 267.13 213.53 266.21C214.82 265.29 216.42 264.16 217.08 263.71C217.83 263.19 218.32 262.92 218.38 262.99C218.43 263.05 218.83 263.7 219.27 264.44C219.71 265.18 220.5 266.62 221.02 267.65C221.92 269.45 221.97 269.52 222.21 269.39C222.35 269.32 223.14 268.86 223.97 268.37C224.8 267.87 226.43 266.86 227.6 266.11C228.77 265.36 230.4 264.28 231.23 263.71C232.06 263.14 233.37 262.22 234.14 261.66C234.9 261.1 236.24 260.1 237.1 259.43C237.96 258.76 239.21 257.75 239.89 257.18C240.56 256.61 241.67 255.66 242.35 255.06C243.02 254.47 244.45 253.14 245.52 252.12C246.59 251.1 248.25 249.43 249.21 248.41C250.17 247.4 251.58 245.84 252.36 244.95C253.14 244.06 254.22 242.81 254.75 242.17C255.29 241.52 256.39 240.14 257.2 239.1C258.01 238.05 259.22 236.44 259.88 235.52C260.54 234.6 261.67 232.97 262.39 231.89C263.11 230.82 264.16 229.21 264.71 228.32C265.27 227.43 266.12 226.02 266.61 225.2C267.1 224.37 267.9 222.96 268.39 222.07C268.89 221.18 269.74 219.57 270.3 218.5C270.86 217.42 271.78 215.56 272.35 214.37C272.91 213.17 273.65 211.56 273.99 210.79C274.33 210.03 274.88 208.74 275.21 207.95C275.54 207.15 276.16 205.61 276.58 204.54C277 203.47 277.75 201.46 278.24 200.07C278.73 198.69 279.52 196.33 279.99 194.83C280.46 193.32 281.19 190.84 281.6 189.3C282.02 187.77 282.56 185.72 282.8 184.75L283.23 183C284.36 183.62 286.1 184.57 287.84 185.52C289.57 186.46 291.01 187.22 291.04 187.21C291.06 187.19 291.21 185.7 291.37 183.89C291.53 182.07 291.71 179.94 291.77 179.14C291.83 178.34 291.91 176.83 291.95 175.79C291.99 174.75 291.97 172.66 291.9 171.16C291.83 169.65 291.7 167.59 291.6 166.58C291.51 165.57 291.31 163.76 291.16 162.56C291 161.36 290.75 159.63 290.59 158.71C290.44 157.79 290.14 156.13 289.92 155.02C289.7 153.92 289.3 152.03 289.03 150.84C288.76 149.64 288.28 147.68 287.97 146.48C287.66 145.29 287.03 143 286.57 141.4C286.11 139.81 285.06 136.49 284.24 134.03C283.42 131.58 282.29 128.31 281.72 126.78C281.16 125.24 280.11 122.53 279.41 120.75C278.7 118.97 277.53 116.13 276.8 114.44C276.08 112.75 274.86 109.99 274.1 108.3C273.33 106.61 272.06 103.9 271.29 102.27C270.51 100.64 269 97.6 267.94 95.52L266.01 91.72C268.1 90.21 269.24 89.33 269.88 88.79C270.53 88.26 271.81 87.07 272.73 86.14C273.66 85.22 274.89 83.86 275.48 83.12C276.07 82.39 276.88 81.31 277.28 80.72C277.68 80.14 278.27 79.21 278.59 78.66C278.92 78.1 279.44 77.12 279.77 76.48C280.09 75.83 280.54 74.83 280.77 74.25C281 73.66 281.31 72.81 281.46 72.35C281.61 71.89 281.88 70.91 282.06 70.17C282.24 69.43 282.46 68.3 282.55 67.66C282.64 67.01 282.74 66.02 282.78 65.45C282.82 64.74 282.88 64.42 282.98 64.42C283.06 64.41 284.35 64.25 285.86 64.05L288.59 63.68C288.54 63.26 288.35 62.11 288.13 60.85C287.91 59.59 287.51 57.53 287.25 56.27C286.98 55.01 286.5 53.05 286.19 51.92C285.88 50.78 285.38 49.12 285.08 48.23C284.79 47.34 284.29 45.99 283.98 45.22C283.68 44.45 283.11 43.12 282.73 42.26C282.35 41.4 281.68 39.99 281.23 39.13C280.78 38.27 280.1 37.04 279.71 36.4C279.33 35.75 278.65 34.67 278.2 34C277.76 33.32 276.95 32.17 276.4 31.43C275.85 30.69 275.02 29.64 274.56 29.08C274.1 28.53 273.14 27.45 272.43 26.68C271.72 25.92 270.47 24.69 269.66 23.95C268.85 23.21 267.6 22.14 266.88 21.57C266.17 21 264.93 20.09 264.13 19.55C263.33 19.01 262.17 18.26 261.56 17.89C260.95 17.53 260.03 17.02 259.52 16.76C259.01 16.51 258.57 16.25 258.54 16.19C258.51 16.13 259.48 14.98 260.7 13.65C261.91 12.31 263.37 10.69 263.95 10.05L265 8.88C264.07 8.76 262.14 8.67 260.11 8.59C257.85 8.51 255.05 8.48 252.9 8.53C250.97 8.57 248.63 8.65 247.71 8.71C246.79 8.77 245.68 8.84 245.25 8.88L244.47 8.94C245.25 8.22 246.3 7.35 247.32 6.54C248.33 5.73 249.9 4.5 250.8 3.79C251.7 3.09 252.42 2.49 252.4 2.46C252.38 2.43 251.9 2.44 251.32 2.48C250.75 2.52 248.04 2.68 245.31 2.84C242.57 3 239.41 3.21 238.27 3.3C237.13 3.39 235.25 3.59 234.08 3.74C232.91 3.89 231.05 4.19 229.95 4.41C228.84 4.63 226.98 5.06 225.81 5.36C224.65 5.65 222.86 6.15 221.85 6.46C220.83 6.77 219.18 7.32 218.16 7.68C217.15 8.05 215.82 8.55 215.2 8.8C214.59 9.04 213.31 9.58 212.35 10C211.4 10.41 209.68 11.22 208.53 11.79C207.38 12.37 205.74 13.22 204.9 13.69C204.05 14.16 202.73 14.92 201.96 15.38C201.2 15.84 199.71 16.78 198.67 17.47C197.63 18.16 195.97 19.32 194.98 20.04C194 20.77 192.47 21.95 191.58 22.67C190.69 23.39 189.28 24.57 188.45 25.29C187.62 26.02 185.66 27.89 184.09 29.45L181.24 32.28C177.17 30.29 175.09 29.33 173.98 28.86C172.88 28.39 170.92 27.61 169.63 27.13C168.34 26.65 166.4 25.98 165.33 25.63C164.25 25.28 162.52 24.75 161.47 24.45C160.43 24.15 158.67 23.68 157.56 23.4C156.46 23.13 154.72 22.73 153.71 22.51C152.69 22.29 150.86 21.94 149.63 21.72C148.4 21.5 146.37 21.17 145.11 20.99C143.85 20.81 141.89 20.56 140.75 20.44C139.61 20.31 137.75 20.14 136.62 20.05C135.48 19.96 133.8 19.85 132.87 19.82C131.48 19.76 131.23 19.77 131.38 19.89C131.47 19.97 132.82 21.1 134.38 22.39L137.2 24.73C136.36 24.85 132.92 24.97 129.02 25.06C125.12 25.16 121.36 25.28 120.67 25.32C119.92 25.37 119.43 25.45 119.45 25.51C119.46 25.57 121.71 26.75 124.44 28.12C127.83 29.82 129.36 30.64 129.24 30.7C129.15 30.75 128.83 30.82 128.52 30.87C128.21 30.91 127.03 31.12 125.89 31.33C124.76 31.55 123.02 31.9 122.04 32.11C121.06 32.33 118.94 32.83 117.35 33.24C115.75 33.64 114.39 33.97 114.31 33.98C114.24 33.99 113.24 33.11 112.08 32.03C110.92 30.95 109.42 29.57 108.75 28.97C108.07 28.37 106.64 27.15 105.56 26.25C104.49 25.35 102.73 23.93 101.65 23.09C100.58 22.26 98.77 20.91 97.63 20.09C96.49 19.28 94.63 18 93.5 17.25C92.36 16.5 90.43 15.28 89.2 14.55C87.97 13.81 86.08 12.73 85.01 12.14C83.93 11.56 82.27 10.69 81.32 10.21C80.37 9.74 78.64 8.92 77.47 8.4C76.3 7.88 74.62 7.16 73.73 6.81C72.84 6.45 71.5 5.93 70.77 5.66C70.03 5.39 68.57 4.88 67.53 4.55C66.48 4.21 64.87 3.72 63.95 3.47C63.03 3.22 61.4 2.82 60.32 2.58C59.25 2.33 57.29 1.93 55.96 1.69C54.64 1.44 52.06 0.98 50.21 0.67C48.37 0.36 46.78 0.07 46.68 0.04C46.57 0.01 46.49 0.04 46.48 0.1Z" />
		<path class="shp1" d="M65.12 15.55C65.12 17.16 65.08 18.59 65.04 18.74C64.98 18.93 64.9 18.98 64.73 18.93C64.61 18.89 63.66 18.64 62.61 18.37C61.57 18.09 60.11 17.74 59.37 17.59C58.63 17.44 57.25 17.19 56.3 17.03C55.35 16.88 53.89 16.68 53.06 16.59C52.23 16.5 50.82 16.37 49.93 16.31C49.04 16.25 47.62 16.17 46.78 16.14C45.79 16.1 45.24 16.12 45.24 16.19C45.24 16.25 45.82 17.15 46.53 18.2C47.23 19.24 47.8 20.11 47.78 20.13C47.77 20.15 47.25 20.26 46.64 20.36C46.02 20.46 44.94 20.7 44.24 20.88C43.53 21.06 42.37 21.4 41.67 21.64C40.96 21.88 39.94 22.26 39.4 22.48C38.87 22.71 37.82 23.19 37.09 23.56C36.35 23.93 35.21 24.55 34.55 24.94C33.88 25.33 32.73 26.1 31.99 26.64C31.24 27.19 30.08 28.08 29.42 28.64C28.75 29.19 27.55 30.29 26.75 31.09C25.95 31.89 24.77 33.18 24.13 33.95C23.48 34.72 22.5 35.99 21.95 36.77C21.4 37.55 20.45 39 19.85 40C19.24 41 18.28 42.77 17.71 43.93C17.13 45.1 16.34 46.88 15.94 47.9C15.54 48.91 14.98 50.47 14.69 51.36C14.4 52.25 13.97 53.71 13.73 54.6C13.49 55.49 13.33 56.25 13.38 56.29C13.42 56.33 14.48 56.6 15.74 56.9C16.99 57.2 18.05 57.47 18.1 57.5C18.15 57.53 18.04 58.23 17.87 59.06C17.69 59.89 17.47 61.11 17.37 61.77C17.28 62.43 17.2 63.66 17.2 64.51C17.21 65.56 17.27 66.36 17.41 67.05C17.53 67.6 17.81 68.53 18.04 69.11C18.27 69.69 18.64 70.52 18.85 70.95C19.07 71.38 19.55 72.24 19.92 72.85C20.29 73.46 20.92 74.42 21.31 74.97C21.71 75.52 22.42 76.43 22.88 76.98C23.35 77.53 24.43 78.69 25.3 79.55C26.16 80.41 27.52 81.66 28.32 82.33C29.12 82.99 30.55 84.12 31.5 84.84C32.45 85.56 34.13 86.77 35.22 87.54C36.31 88.3 37.21 88.97 37.2 89.01C37.2 89.06 37.13 89.21 37.04 89.35C36.95 89.49 36.3 90.68 35.58 92C34.86 93.32 33.47 95.93 32.5 97.8C31.52 99.68 29.95 102.82 29.01 104.78C28.06 106.75 26.68 109.69 25.94 111.31C25.21 112.94 24.09 115.48 23.46 116.95C22.83 118.43 21.85 120.79 21.28 122.2C20.71 123.61 19.78 125.97 19.21 127.45C18.65 128.92 17.7 131.53 17.1 133.25C16.49 134.97 15.61 137.58 15.14 139.06C14.67 140.53 13.91 143.02 13.46 144.59C13.01 146.15 12.34 148.64 11.97 150.11C11.6 151.59 11.12 153.62 10.9 154.63C10.69 155.65 10.33 157.46 10.12 158.65C9.9 159.85 9.6 161.73 9.45 162.84C9.3 163.94 9.1 165.63 9 166.58C8.91 167.53 8.78 169.04 8.72 169.93C8.65 170.82 8.6 171.91 8.6 172.36C8.6 172.8 8.61 173.17 8.63 173.17C8.64 173.17 10.15 172.66 11.98 172.05C13.81 171.44 15.33 170.93 15.36 170.93C15.39 170.93 15.44 171.22 15.48 171.58C15.51 171.93 15.71 173.27 15.92 174.56C16.13 175.85 16.51 177.91 16.76 179.14C17.02 180.37 17.47 182.35 17.76 183.55C18.06 184.75 18.64 186.88 19.04 188.3C19.45 189.71 20.23 192.19 20.77 193.82C21.31 195.45 22.16 197.86 22.66 199.18C23.15 200.5 23.98 202.61 24.5 203.87C25.02 205.13 25.83 207.01 26.3 208.06C26.77 209.1 27.78 211.21 28.55 212.75C29.31 214.28 30.49 216.54 31.17 217.77C31.85 219 32.91 220.83 33.51 221.85C34.12 222.86 35.16 224.53 35.82 225.56C36.49 226.59 37.53 228.14 38.14 229.02C38.75 229.89 39.83 231.39 40.54 232.34C41.25 233.29 42.41 234.8 43.13 235.69C43.85 236.58 44.97 237.94 45.63 238.7C46.29 239.47 47.62 240.95 48.59 242C49.56 243.04 51.23 244.75 52.3 245.79C53.37 246.84 55.07 248.42 56.09 249.31C57.1 250.2 58.68 251.54 59.6 252.28C60.52 253.02 61.95 254.13 62.78 254.75C63.61 255.36 64.88 256.27 65.6 256.78C66.32 257.28 66.92 257.69 66.94 257.69C66.96 257.69 67.82 256.78 68.87 255.66C69.91 254.55 71.13 253.32 71.58 252.92L72.39 252.21C74.07 253.19 75.44 254.03 76.52 254.71C77.59 255.38 79.43 256.57 80.6 257.35C81.76 258.14 83.6 259.4 84.67 260.17C85.75 260.93 87.68 262.35 88.97 263.33C90.26 264.3 91.8 265.47 92.38 265.93C92.96 266.39 94.2 267.37 95.12 268.11C96.04 268.85 97.67 270.19 98.75 271.08C99.82 271.97 101.91 273.73 103.38 274.99C104.86 276.26 107.15 278.24 108.47 279.41C109.79 280.57 112.67 283.13 114.88 285.09C118.7 288.51 118.91 288.68 119.57 288.86C119.94 288.97 120.85 289.18 121.59 289.33C122.33 289.48 123.76 289.7 124.78 289.83C125.79 289.95 127.72 290.16 129.08 290.29C130.43 290.41 131.91 290.56 132.37 290.62C132.83 290.68 134.34 290.8 135.72 290.89C137.11 290.99 139.09 291.11 140.14 291.17C141.18 291.24 143.74 291.34 145.83 291.41C147.94 291.48 150.92 291.51 152.53 291.47C154.13 291.43 156.29 291.34 157.34 291.28C158.38 291.22 160.22 291.07 161.42 290.95C162.61 290.83 164.42 290.6 165.44 290.45C166.45 290.29 168.13 289.99 169.18 289.78C170.22 289.57 171.43 289.3 171.86 289.19L172.64 288.99C181.56 281.11 185.35 277.78 186.83 276.5C188.3 275.23 190.84 273.07 192.47 271.71C194.1 270.34 196.31 268.53 197.38 267.66C198.46 266.8 200.12 265.49 201.07 264.76C202.02 264.02 203.76 262.71 204.93 261.85C206.09 260.99 208.05 259.59 209.28 258.74C210.51 257.89 212.37 256.64 213.41 255.96C214.46 255.28 216.29 254.14 217.49 253.42L219.67 252.12C221.2 253.53 222.35 254.71 223.22 255.66C224.1 256.6 224.82 257.41 224.84 257.47C224.85 257.53 224.91 257.57 224.98 257.57C225.04 257.57 225.73 257.14 226.51 256.6C227.3 256.06 228.64 255.1 229.5 254.46C230.36 253.82 231.79 252.7 232.68 251.99C233.57 251.27 234.81 250.24 235.42 249.7C236.04 249.17 237.44 247.89 238.54 246.87C239.63 245.85 241.39 244.11 242.44 243C243.49 241.9 244.96 240.29 245.71 239.43C246.47 238.57 247.62 237.21 248.27 236.42C248.93 235.62 250.28 233.88 251.27 232.56C252.26 231.24 253.66 229.31 254.37 228.26C255.09 227.22 256.27 225.41 257.01 224.25C257.75 223.08 258.9 221.17 259.57 220C260.24 218.84 261.38 216.78 262.09 215.43C262.81 214.08 263.85 211.99 264.41 210.79C264.97 209.6 265.85 207.66 266.36 206.49C266.87 205.33 267.65 203.47 268.09 202.36C268.54 201.26 269.27 199.37 269.72 198.18C270.16 196.98 270.89 194.92 271.33 193.6C271.77 192.28 272.45 190.09 272.84 188.74C273.24 187.39 273.83 185.18 274.17 183.83C274.51 182.48 274.98 180.39 275.23 179.2C275.48 178 275.83 176.11 276.01 175.01C276.19 173.9 276.41 172.53 276.49 171.97C276.59 171.29 276.69 170.93 276.78 170.93C276.86 170.93 278.39 171.41 280.19 172C281.98 172.59 283.46 173.05 283.47 173.03C283.48 173.01 283.44 172.17 283.39 171.16C283.33 170.14 283.21 168.46 283.12 167.42C283.02 166.37 282.84 164.74 282.72 163.79C282.6 162.84 282.34 161.13 282.16 159.99C281.97 158.86 281.6 156.85 281.33 155.53C281.06 154.21 280.58 152.1 280.27 150.84C279.96 149.58 279.45 147.62 279.14 146.48C278.83 145.35 278.15 143.06 277.64 141.4C277.13 139.75 276.41 137.51 276.04 136.43C275.68 135.36 275 133.43 274.54 132.14C274.08 130.85 273.34 128.84 272.9 127.67C272.46 126.5 271.57 124.24 270.92 122.65C270.28 121.05 269.16 118.36 268.43 116.67C267.71 114.98 266.61 112.5 266 111.15C265.38 109.8 264.32 107.51 263.63 106.07C262.95 104.62 261.64 101.99 260.73 100.2C259.82 98.42 258.54 95.96 257.87 94.73C257.21 93.51 256.19 91.67 255.62 90.66C255.04 89.65 254.57 88.78 254.58 88.73C254.58 88.69 255.37 88.19 256.34 87.63C257.31 87.07 258.73 86.21 259.49 85.72C260.26 85.23 261.42 84.45 262.06 83.98C262.71 83.52 263.74 82.74 264.35 82.24C264.97 81.75 266.1 80.72 266.87 79.95C267.64 79.17 268.61 78.12 269.03 77.6C269.45 77.07 270.14 76.12 270.57 75.47C271 74.83 271.65 73.7 272.01 72.96C272.38 72.23 272.89 70.94 273.16 70.12C273.43 69.29 273.76 68.06 273.89 67.38C274.02 66.7 274.18 65.47 274.23 64.64C274.28 63.82 274.28 62.53 274.23 61.8C274.17 61.06 274.05 60.03 273.96 59.51C273.86 58.99 273.68 58.18 273.56 57.72C273.44 57.26 273.36 56.87 273.37 56.86C273.39 56.84 274.56 56.72 275.97 56.59C277.38 56.46 278.56 56.33 278.6 56.31C278.63 56.28 278.51 55.78 278.33 55.18C278.16 54.58 277.64 52.94 277.17 51.53C276.71 50.11 276.01 48.15 275.61 47.17C275.22 46.19 274.48 44.53 273.96 43.49C273.45 42.44 272.61 40.89 272.1 40.03C271.58 39.17 270.75 37.86 270.25 37.12C269.75 36.39 268.96 35.31 268.49 34.72C268.02 34.14 267.09 33.06 266.43 32.32C265.77 31.59 264.6 30.42 263.84 29.73C263.08 29.04 261.9 28.05 261.22 27.52C260.55 26.99 259.49 26.22 258.88 25.8C258.26 25.38 257.08 24.65 256.25 24.17C255.42 23.69 254.19 23.04 253.52 22.72C252.84 22.4 251.71 21.91 251 21.63C250.3 21.35 249.09 20.92 248.32 20.68C247.55 20.43 246.74 20.2 246.51 20.16C246.28 20.13 246.09 20.06 246.08 20.01C246.08 19.97 246.62 19.02 247.27 17.92C247.93 16.81 248.48 15.85 248.5 15.77C248.54 15.66 248.19 15.63 247.01 15.63C246.17 15.63 244.92 15.68 244.25 15.74C243.57 15.81 242.39 15.96 241.62 16.09C240.85 16.22 239.42 16.52 238.44 16.77C237.45 17.02 235.92 17.47 235.03 17.78C234.14 18.09 232.63 18.66 231.68 19.06C230.73 19.46 229.02 20.25 227.88 20.81C226.74 21.38 225.17 22.21 224.39 22.65C223.61 23.09 222.94 23.43 222.91 23.42C222.88 23.4 223.1 22.84 223.4 22.16C223.7 21.49 224.68 19.38 225.58 17.47C226.48 15.57 227.2 14 227.18 13.98C227.17 13.96 226.5 14.13 225.7 14.35C224.9 14.58 223.45 15.04 222.46 15.38C221.48 15.71 219.85 16.31 218.83 16.71C217.82 17.11 216.29 17.74 215.43 18.12C214.57 18.5 212.98 19.24 211.91 19.77C210.83 20.3 209.12 21.2 208.11 21.77C207.09 22.34 205.54 23.26 204.65 23.81C203.75 24.37 202.37 25.28 201.57 25.83C200.78 26.38 199.52 27.28 198.78 27.84C198.04 28.39 196.91 29.27 196.27 29.8C195.62 30.33 194.44 31.34 193.64 32.06C192.84 32.78 191.46 34.1 190.57 34.99C189.68 35.88 188.98 36.63 189.01 36.66C189.04 36.69 189.49 36.92 190.01 37.18C190.53 37.44 191.51 37.96 192.19 38.33C192.87 38.7 194.32 39.54 195.43 40.2C196.54 40.86 198.42 42.05 199.62 42.85C200.82 43.64 202.6 44.89 203.58 45.61C204.57 46.33 206.1 47.51 206.99 48.22C207.88 48.93 209.34 50.15 210.23 50.92C211.12 51.69 212.73 53.15 213.81 54.17C214.88 55.18 216.52 56.81 217.44 57.79C218.36 58.76 219.75 60.29 220.53 61.18C221.3 62.07 222.37 63.33 222.89 63.97L223.85 65.15C221.22 65.26 219.87 65.35 219.17 65.43C218.46 65.5 217.3 65.66 216.6 65.78C215.89 65.9 214.74 66.14 214.03 66.32C213.32 66.5 212.22 66.83 211.57 67.05C210.93 67.28 209.95 67.66 209.39 67.91C208.84 68.16 208.24 68.45 208.05 68.56C207.87 68.66 207.47 68.88 207.16 69.05L206.6 69.36C208.94 70.35 210.25 70.96 211.01 71.34C211.78 71.73 212.94 72.34 213.58 72.71C214.23 73.08 215.53 73.9 216.49 74.53C217.44 75.17 218.77 76.12 219.45 76.64C220.12 77.17 221.13 77.99 221.68 78.46C222.23 78.94 223.34 79.98 224.14 80.78C224.95 81.58 226.08 82.78 226.65 83.46C227.23 84.13 228.11 85.24 228.61 85.91C229.12 86.59 229.95 87.79 230.48 88.59C231 89.39 231.75 90.6 232.13 91.27C232.52 91.95 233.25 93.36 233.76 94.4C234.26 95.44 235 97.13 235.4 98.14C235.8 99.15 236.36 100.71 236.65 101.6C236.93 102.49 237.39 104.07 237.66 105.12C237.93 106.16 238.3 107.77 238.48 108.69C238.66 109.61 238.94 111.22 239.09 112.26C239.25 113.31 239.45 114.99 239.55 116C239.65 117.02 239.77 119.06 239.83 120.55C239.9 122.04 239.92 123.31 239.89 123.37C239.86 123.43 239.37 123.07 238.8 122.57C238.23 122.07 236.99 121.04 236.04 120.28C235.08 119.52 233.6 118.41 232.74 117.81C231.88 117.21 230.57 116.34 229.84 115.88C229.1 115.42 228.07 114.79 227.55 114.5C227.02 114.2 225.77 113.54 224.75 113.04C223.74 112.53 222.16 111.82 221.23 111.45C220.31 111.08 218.93 110.58 218.16 110.33C217.39 110.08 216.06 109.7 215.2 109.49C214.34 109.27 213.21 109.02 212.69 108.92C212.17 108.83 211.11 108.68 210.34 108.59C209.57 108.5 208.67 108.41 208.34 108.39L207.73 108.36C206.62 109.83 205.81 110.83 205.22 111.54C204.63 112.24 203.39 113.58 202.47 114.5C201.55 115.43 200.19 116.7 199.45 117.33C198.71 117.96 197.46 118.97 196.66 119.57C195.86 120.17 194.65 121.04 193.98 121.5C193.3 121.96 192 122.79 191.07 123.34C190.15 123.9 188.64 124.75 187.72 125.24C186.8 125.74 185.27 126.5 184.32 126.95C183.36 127.39 181.83 128.07 180.91 128.45C179.99 128.83 178.53 129.41 177.67 129.73C176.81 130.05 175.23 130.61 174.15 130.97C173.07 131.32 171.32 131.87 170.24 132.18C169.17 132.48 167.86 132.84 167.34 132.97C166.81 133.1 166.37 133.19 166.35 133.17C166.34 133.15 166.86 132.41 167.53 131.52C168.19 130.63 169.32 129.02 170.03 127.95C170.75 126.87 171.72 125.34 172.2 124.54C172.67 123.75 173.47 122.34 173.97 121.42C174.46 120.5 175.22 118.99 175.64 118.07C176.06 117.15 176.73 115.59 177.11 114.61C177.5 113.62 178.01 112.19 178.26 111.43C178.5 110.66 178.86 109.45 179.05 108.75C179.23 108.04 179.54 106.73 179.72 105.84C179.9 104.95 180.09 103.95 180.13 103.61L180.21 103C175.9 100.3 173.67 98.95 172.47 98.26C171.28 97.56 169.32 96.48 168.12 95.84C166.92 95.21 165.03 94.27 163.93 93.75C162.82 93.23 161.24 92.52 160.41 92.17C159.58 91.81 158.27 91.28 157.51 90.99C156.74 90.7 155.43 90.23 154.6 89.95C153.77 89.67 152.36 89.23 151.47 88.98C150.58 88.72 149 88.32 147.95 88.08C146.91 87.84 145.93 87.65 145.78 87.64C145.62 87.64 144.59 87.86 143.49 88.14C142.38 88.41 140.62 88.89 139.58 89.21C138.53 89.53 136.65 90.16 135.39 90.63C134.13 91.09 132.14 91.88 130.98 92.37C129.81 92.87 127.52 93.94 125.89 94.75C124.26 95.56 122.33 96.56 121.59 96.97C120.85 97.39 119.25 98.33 118.02 99.06C116.79 99.8 114.84 101.02 113.69 101.78C112 102.89 111.59 103.21 111.59 103.41C111.59 103.55 111.72 104.29 111.87 105.06C112.03 105.83 112.35 107.21 112.59 108.13C112.83 109.05 113.28 110.56 113.59 111.48C113.89 112.4 114.44 113.91 114.81 114.83C115.18 115.75 115.81 117.23 116.23 118.12C116.64 119.01 117.25 120.27 117.6 120.92C117.94 121.56 118.55 122.67 118.95 123.37C119.35 124.08 120.11 125.33 120.62 126.16C121.14 126.99 122 128.3 122.53 129.07C123.05 129.83 123.93 131.05 124.47 131.77C125 132.49 125.43 133.11 125.42 133.14C125.4 133.18 124.96 133.1 124.44 132.97C123.92 132.84 122.56 132.47 121.42 132.14C120.29 131.8 118.33 131.18 117.07 130.76C115.81 130.33 113.95 129.65 112.93 129.26C111.92 128.86 110.21 128.15 109.14 127.67C108.06 127.19 106.63 126.53 105.95 126.19C105.28 125.85 104.17 125.28 103.5 124.91C102.82 124.54 101.71 123.91 101.04 123.51C100.36 123.1 99.16 122.34 98.36 121.82C97.56 121.29 96.18 120.31 95.29 119.64C94.39 118.97 93.01 117.86 92.21 117.17C91.41 116.48 90.01 115.15 89.08 114.2C88.16 113.26 86.98 111.98 86.47 111.37C85.96 110.76 85.2 109.81 84.8 109.27L84.06 108.29C82.85 108.4 81.79 108.53 80.93 108.65C80.07 108.77 78.76 109 78.03 109.15C77.29 109.31 75.93 109.65 75.01 109.92C74.09 110.19 72.71 110.64 71.94 110.93C71.17 111.22 69.91 111.73 69.15 112.06C68.38 112.39 67 113.06 66.07 113.54C65.15 114.02 63.87 114.73 63.23 115.11C62.58 115.5 61.42 116.22 60.66 116.73C59.89 117.23 58.51 118.21 57.58 118.9C56.66 119.59 55.33 120.64 54.63 121.24C53.92 121.83 53.03 122.61 52.64 122.98L51.93 123.65C51.94 121.66 52 120.2 52.06 119.13C52.12 118.05 52.22 116.6 52.28 115.89C52.35 115.19 52.5 113.83 52.62 112.88C52.74 111.93 52.99 110.29 53.18 109.25C53.36 108.2 53.77 106.32 54.08 105.06C54.39 103.8 54.92 101.92 55.26 100.87C55.6 99.83 56.18 98.2 56.56 97.25C56.93 96.29 57.82 94.36 58.53 92.95C59.24 91.54 60.27 89.66 60.83 88.78C61.38 87.9 62.33 86.52 62.93 85.71C63.54 84.9 64.47 83.74 65 83.12C65.53 82.51 66.59 81.37 67.36 80.6C68.13 79.83 69.28 78.75 69.93 78.2C70.57 77.65 71.6 76.82 72.22 76.35C72.83 75.89 73.99 75.08 74.79 74.55C75.59 74.03 76.89 73.23 77.69 72.79C78.49 72.34 79.67 71.73 80.32 71.42C80.96 71.12 82.09 70.63 82.83 70.34C83.57 70.05 84.36 69.75 84.59 69.68C84.82 69.61 85.01 69.51 85.01 69.45C85.01 69.38 84.67 69.14 84.25 68.89C83.84 68.65 82.97 68.2 82.33 67.9C81.68 67.59 80.63 67.17 79.98 66.95C79.34 66.74 78.31 66.44 77.69 66.28C77.08 66.13 75.95 65.9 75.18 65.77C74.41 65.65 73.28 65.49 72.66 65.43C72.05 65.37 70.71 65.28 69.68 65.23C68.65 65.19 67.8 65.13 67.81 65.12C67.81 65.1 68.26 64.55 68.82 63.89C69.38 63.23 70.66 61.81 71.66 60.74C72.66 59.66 74.35 57.97 75.42 56.98C76.48 56 77.76 54.84 78.25 54.41C78.74 53.99 79.8 53.11 80.6 52.46C81.39 51.81 82.88 50.66 83.89 49.91C84.91 49.16 86.74 47.88 87.97 47.06C89.2 46.25 90.96 45.13 91.88 44.58C92.8 44.03 94.31 43.16 95.23 42.65C96.15 42.14 98.04 41.16 99.42 40.48C100.8 39.79 102.72 38.88 103.69 38.46C104.66 38.03 105.45 37.66 105.45 37.63C105.46 37.59 105.01 37.17 104.48 36.67C103.94 36.18 103.04 35.37 102.49 34.88C101.94 34.39 100.83 33.43 100.03 32.76C99.23 32.08 97.9 30.98 97.07 30.31C96.24 29.64 94.68 28.44 93.61 27.64C92.53 26.83 90.9 25.65 89.98 25.01C89.06 24.37 87.4 23.27 86.29 22.57C85.19 21.86 83.35 20.75 82.22 20.1C81.08 19.45 79.14 18.41 77.92 17.79C76.69 17.17 74.93 16.32 74.01 15.91C73.08 15.49 71.5 14.83 70.49 14.43C69.47 14.04 67.91 13.46 67.02 13.16C66.13 12.86 65.34 12.61 65.26 12.61C65.16 12.62 65.12 13.28 65.12 15.55Z" />
		<path class="shp0" d="M78.42 118.64C77.53 118.92 76.02 119.44 75.07 119.8C74.11 120.15 72.62 120.75 71.74 121.13C70.87 121.5 69.38 122.19 68.45 122.66C67.51 123.13 66.12 123.87 65.35 124.3C64.58 124.73 63.35 125.47 62.61 125.94C61.87 126.4 60.77 127.14 60.15 127.57C59.54 128.01 58.53 128.76 57.92 129.23C57.31 129.71 56.3 130.53 55.69 131.06C55.07 131.59 53.95 132.63 53.19 133.36C52.43 134.1 51.28 135.29 50.64 136.02C50.01 136.74 49.49 137.38 49.49 137.44C49.49 137.5 49.55 137.52 49.63 137.48C49.7 137.43 50.04 137.22 50.38 136.99C50.72 136.77 51.72 136.15 52.61 135.63C53.5 135.11 54.86 134.35 55.63 133.94C56.4 133.54 57.6 132.95 58.31 132.63C59.02 132.31 60.2 131.81 60.94 131.52C61.67 131.23 62.98 130.76 63.84 130.49C64.7 130.21 66.03 129.83 66.8 129.64C67.57 129.45 68.93 129.17 69.82 129.02C70.71 128.87 72.22 128.68 73.17 128.61C74.22 128.53 75.65 128.51 76.8 128.55C77.84 128.59 78.8 128.65 78.92 128.68C79.06 128.72 79.34 129.13 79.7 129.82C80.01 130.42 80.64 131.48 81.11 132.19C81.58 132.9 82.34 133.88 82.79 134.37C83.24 134.86 83.94 135.55 84.34 135.91C84.74 136.26 85.44 136.8 85.9 137.11C86.36 137.43 87.13 137.88 87.61 138.12C88.08 138.36 88.74 138.65 89.06 138.77C89.38 138.89 90 139.09 90.43 139.21C90.86 139.34 91.71 139.53 92.33 139.63C93.02 139.75 94.13 139.82 95.29 139.83C96.3 139.83 97.51 139.8 97.97 139.75L98.8 139.66C98.93 137.38 98.95 136.7 98.92 136.69C98.89 136.67 98.45 136.88 97.94 137.15C97.43 137.42 96.69 137.75 96.29 137.89C95.64 138.12 95.43 138.14 94.34 138.08C93.54 138.04 92.83 137.93 92.33 137.77C91.9 137.64 91.12 137.31 90.59 137.04C90.07 136.77 89.24 136.23 88.75 135.84C88.26 135.45 87.57 134.78 87.23 134.36C86.88 133.93 86.41 133.29 86.17 132.92C85.94 132.55 85.59 131.87 85.39 131.41C85.2 130.95 84.95 130.22 84.85 129.79C84.74 129.36 84.63 128.58 84.59 128.06C84.55 127.44 84.59 126.8 84.71 126.22C84.8 125.73 84.98 125.05 85.11 124.71C85.23 124.37 85.52 123.8 85.74 123.43L86.14 122.76C85.31 122.02 84.51 121.34 83.84 120.78C83.16 120.22 82.09 119.42 81.46 119C80.83 118.58 80.25 118.21 80.18 118.18C80.1 118.16 79.31 118.36 78.42 118.64ZM210.62 118.98C209.95 119.44 208.94 120.19 208.39 120.64C207.83 121.09 207.06 121.75 206.67 122.11L205.95 122.76C206.68 123.97 207.02 124.72 207.17 125.21C207.33 125.71 207.48 126.53 207.52 127.06C207.56 127.62 207.53 128.37 207.44 128.9C207.36 129.39 207.19 130.12 207.05 130.52C206.92 130.92 206.6 131.64 206.34 132.14C206.08 132.63 205.63 133.36 205.33 133.76C205.03 134.15 204.44 134.81 204.02 135.21C203.59 135.61 202.95 136.13 202.58 136.38C202.21 136.62 201.58 136.98 201.18 137.18C200.78 137.37 200.05 137.65 199.56 137.79C198.88 137.98 198.38 138.04 197.44 138.05C196.47 138.05 196.04 137.99 195.37 137.79C194.91 137.65 194.21 137.36 193.81 137.15C193.41 136.94 193.08 136.79 193.08 136.8C193.07 136.81 193.11 137.45 193.16 138.22C193.21 138.99 193.26 139.63 193.28 139.64C193.29 139.65 194.16 139.72 195.21 139.79C196.62 139.88 197.46 139.89 198.5 139.79C199.27 139.73 200.4 139.55 201.02 139.4C201.63 139.25 202.61 138.94 203.19 138.7C203.78 138.47 204.63 138.06 205.09 137.8C205.55 137.54 206.28 137.06 206.71 136.74C207.14 136.42 207.98 135.68 208.56 135.1C209.15 134.51 209.99 133.56 210.42 132.97C210.85 132.39 211.46 131.49 211.77 130.96C212.08 130.44 212.48 129.73 212.65 129.38C212.84 129 213.06 128.71 213.19 128.68C213.31 128.64 214.34 128.58 215.48 128.55C216.77 128.5 218.13 128.53 219.11 128.61C219.97 128.69 221.4 128.87 222.3 129.02C223.19 129.17 224.62 129.47 225.48 129.69C226.34 129.91 227.77 130.33 228.66 130.63C229.55 130.93 231.09 131.51 232.07 131.92C233.05 132.33 234.89 133.18 236.15 133.82C237.41 134.45 239.19 135.42 240.11 135.96C241.03 136.51 241.98 137.06 242.21 137.2C242.44 137.33 242.63 137.4 242.63 137.36C242.63 137.31 242.01 136.59 241.25 135.76C240.5 134.94 239.25 133.67 238.49 132.96C237.72 132.24 236.54 131.19 235.87 130.62C235.19 130.05 233.99 129.1 233.19 128.5C232.39 127.91 231.01 126.94 230.11 126.36C229.22 125.78 227.87 124.94 227.1 124.49C226.33 124.04 224.82 123.24 223.75 122.7C222.67 122.17 221.24 121.49 220.56 121.19C219.89 120.9 218.56 120.36 217.6 120C216.65 119.63 214.99 119.06 213.92 118.73C212.84 118.4 211.94 118.12 211.91 118.13C211.88 118.13 211.3 118.51 210.62 118.98Z" />
		<path class="shp2" d="M89.34 126.92C88.99 127.64 88.97 127.73 88.97 128.95C88.97 130.22 88.98 130.25 89.41 131.13C89.74 131.82 90.04 132.22 90.69 132.86C91.26 133.42 91.78 133.81 92.27 134.05C92.67 134.24 93.27 134.46 93.61 134.54C93.96 134.62 94.61 134.65 95.12 134.63C95.71 134.59 96.19 134.49 96.54 134.33L97.07 134.09C96.6 133.44 96.04 132.73 95.52 132.08C94.99 131.44 93.51 129.84 92.22 128.53C90.92 127.23 89.83 126.16 89.79 126.16C89.74 126.16 89.54 126.5 89.34 126.92ZM199.55 128.87C198.08 130.36 196.45 132.12 195.93 132.79C195.34 133.55 195.03 134.03 195.11 134.07C195.18 134.11 195.78 134.24 196.45 134.36C197.2 134.49 197.96 134.55 198.45 134.52C199.09 134.47 199.37 134.39 200.01 134.04C200.44 133.8 201.1 133.3 201.47 132.93C201.96 132.44 202.29 131.96 202.64 131.25L203.14 130.26C203.14 127.79 203.11 127.61 202.84 127.06C202.68 126.72 202.47 126.38 202.38 126.3C202.25 126.19 201.78 126.62 199.55 128.87Z" />
		<path class="shp0" d="M143.02 140C141.37 140.85 137.01 143.13 133.32 145.07C129.64 147.01 126.56 148.64 126.48 148.68C126.4 148.73 123.97 154.52 121.08 161.56C118.19 168.59 112.33 182.83 108.06 193.21L100.29 212.08C100.58 213.11 100.89 213.99 101.16 214.7C101.44 215.41 102 216.64 102.42 217.44C102.83 218.23 103.49 219.36 103.88 219.95C104.27 220.53 104.87 221.36 105.21 221.79C105.56 222.22 106.22 222.97 106.68 223.45C107.14 223.93 107.89 224.64 108.36 225.03C108.82 225.41 109.62 226.01 110.14 226.36C110.66 226.71 111.64 227.27 112.32 227.6C113 227.92 113.85 228.29 114.22 228.41C114.59 228.54 115.29 228.74 115.78 228.87C116.27 229 116.69 229.09 116.7 229.07C116.7 229.06 116.44 228.14 116.11 227.04C115.78 225.93 115.33 224.27 115.11 223.35C114.9 222.43 114.62 221 114.48 220.17C114.27 218.91 114.23 218.2 114.23 215.82C114.22 213.5 114.26 212.76 114.43 211.85C114.56 211.14 114.74 210.56 114.93 210.24C115.09 209.97 115.45 209.52 115.73 209.24C116 208.97 116.61 208.5 117.07 208.19C117.53 207.89 118.51 207.35 119.25 206.99C119.98 206.62 121.34 206.08 122.26 205.78C123.18 205.48 124.54 205.1 125.28 204.93C126.02 204.77 127.27 204.54 128.07 204.42C128.87 204.31 130.18 204.16 130.98 204.1C131.77 204.03 133.18 203.98 134.1 203.98C135.02 203.98 136.19 204.02 136.7 204.07C137.21 204.11 137.62 204.17 137.63 204.21C137.63 204.24 137.19 204.43 136.65 204.64C136.11 204.85 135.11 205.28 134.44 205.6C133.76 205.92 132.63 206.52 131.93 206.95C131.22 207.37 130.14 208.09 129.52 208.55C128.91 209.01 127.88 209.92 127.23 210.57C126.59 211.21 125.78 212.12 125.44 212.58C125.1 213.04 124.69 213.63 124.52 213.89L124.22 214.37C126.25 214.72 127.8 215.03 128.96 215.28C130.13 215.53 131.99 215.98 133.1 216.27C134.2 216.57 135.79 217.04 136.62 217.31C137.45 217.58 138.78 218.06 139.58 218.37C140.38 218.68 141.83 219.33 142.82 219.82C143.8 220.3 144.87 220.86 145.19 221.05C145.51 221.24 145.83 221.4 145.89 221.4C145.95 221.4 146.54 221.06 147.2 220.65C147.86 220.24 149.26 219.49 150.3 218.99C151.35 218.49 152.78 217.86 153.48 217.6C154.19 217.34 155.5 216.91 156.39 216.64C157.28 216.37 158.79 215.98 159.74 215.77C160.69 215.55 162.07 215.28 162.81 215.15C163.55 215.02 164.91 214.82 165.83 214.69C166.75 214.57 167.52 214.46 167.53 214.44C167.55 214.43 167.26 213.99 166.88 213.47C166.5 212.95 165.75 212.03 165.22 211.42C164.7 210.81 163.82 209.92 163.29 209.43C162.75 208.95 161.89 208.25 161.39 207.88C160.88 207.5 159.99 206.91 159.4 206.57C158.82 206.23 157.84 205.73 157.23 205.47C156.61 205.21 155.62 204.86 155.02 204.68C154.42 204.51 153.93 204.34 153.93 204.29C153.93 204.24 154.47 204.17 155.13 204.13C155.79 204.1 157.69 204.09 159.35 204.12C161.21 204.16 162.88 204.25 163.71 204.37C164.44 204.47 165.65 204.68 166.39 204.84C167.12 204.99 168.38 205.33 169.18 205.6C169.98 205.86 171.16 206.32 171.8 206.63C172.45 206.93 173.33 207.4 173.76 207.66C174.19 207.93 174.85 208.38 175.22 208.66C175.59 208.94 176.11 209.36 176.37 209.59C176.74 209.93 176.87 210.16 177.05 210.76C177.17 211.18 177.35 211.97 177.45 212.52C177.54 213.08 177.65 214.18 177.69 214.98C177.73 215.81 177.7 217.08 177.62 217.94C177.55 218.77 177.36 220.12 177.21 220.95C177.06 221.78 176.73 223.26 176.48 224.25C176.23 225.23 175.83 226.69 175.59 227.48C175.35 228.28 175.15 228.97 175.15 229.02C175.15 229.07 175.47 229.03 175.85 228.93C176.24 228.84 177 228.61 177.56 228.42C178.11 228.23 179.09 227.81 179.74 227.49C180.38 227.16 181.34 226.61 181.86 226.26C182.38 225.9 183.23 225.26 183.75 224.82C184.26 224.38 185.01 223.67 185.41 223.24C185.81 222.81 186.48 222.01 186.91 221.46C187.34 220.9 187.97 220 188.31 219.45C188.65 218.89 189.27 217.74 189.69 216.88C190.1 216.02 190.65 214.7 190.9 213.95C191.15 213.19 191.36 212.47 191.37 212.33C191.38 212.19 190.88 210.77 190.25 209.17C189.61 207.58 188.24 204.16 187.2 201.58C186.15 199 184.62 195.23 183.79 193.21C182.96 191.18 179.95 183.9 177.11 177.02C174.27 170.14 171.09 162.43 170.04 159.88C169 157.33 167.58 153.84 166.89 152.12C166.19 150.4 165.57 148.93 165.5 148.85C165.44 148.76 163.97 147.95 162.25 147.04C160.53 146.13 158.04 144.83 156.72 144.14C155.4 143.45 153.04 142.2 151.47 141.37C149.91 140.54 148.25 139.65 147.79 139.39C147.33 139.13 146.74 138.82 146.49 138.69L146.02 138.46" />
	</g>
</svg>