<?xml version="1.0" encoding="UTF-8" standalone="no"?>
<svg
   xmlns:dc="http://purl.org/dc/elements/1.1/"
   xmlns:cc="http://creativecommons.org/ns#"
   xmlns:rdf="http://www.w3.org/1999/02/22-rdf-syntax-ns#"
   xmlns:svg="http://www.w3.org/2000/svg"
   xmlns="http://www.w3.org/2000/svg"
   xmlns:sodipodi="http://sodipodi.sourceforge.net/DTD/sodipodi-0.dtd"
   xmlns:inkscape="http://www.inkscape.org/namespaces/inkscape"
   height="220"
   viewBox="0 0 474.34167 347.85055"
   width="300"
   id="svg3001"
   version="1.1"
   inkscape:version="0.48.1 "
   sodipodi:docname="edinb.svg">
  <metadata
     id="metadata3015">
    <rdf:RDF>
      <cc:Work
         rdf:about="">
        <dc:format>image/svg+xml</dc:format>
        <dc:type
           rdf:resource="http://purl.org/dc/dcmitype/StillImage" />
      </cc:Work>
    </rdf:RDF>
  </metadata>
  <defs
     id="defs3013" />
  <sodipodi:namedview
     pagecolor="#ffffff"
     bordercolor="#666666"
     borderopacity="1"
     objecttolerance="10"
     gridtolerance="10"
     guidetolerance="10"
     inkscape:pageopacity="0"
     inkscape:pageshadow="2"
     inkscape:window-width="1280"
     inkscape:window-height="657"
     id="namedview3011"
     showgrid="false"
     inkscape:zoom="1.6375068"
     inkscape:cx="178.2177"
     inkscape:cy="95.085664"
     inkscape:window-x="0"
     inkscape:window-y="0"
     inkscape:window-maximized="1"
     inkscape:current-layer="svg3001" />
  <g
     id="g3017"
     transform="matrix(0.95137676,0,0,0.95137676,0.1325126,-61.673947)">
    <path
       id="path3003"
       d="m 248.702,72.443 -80.533,21.286 v 61.436 l -80.532,21.28 V 115.41 L 7.105,137.092 V 273.223 H 490.293 V 137.092 l -80.532,-21.481 v 61.436 l -80.533,-21.28 V 93.924 z"
       inkscape:connector-curvature="0"
       style="fill:#e84724" />
    <path
       id="path3005"
       d="m 474.7252,321.825 h -17.5988 v -36.5587 h -15.568 v 84.1906 h 15.568 v -35.8932 h 17.5988 v 35.8932 h 15.568 v -84.1906 h -15.568 z M 429.914,298.4738 q 0,-13.21 -14.7568,-13.2075 h -15.8384 q -14.7567,0 -14.7568,13.2075 v 57.9133 q 0,13.21 14.7568,13.2075 h 15.8384 q 14.7568,0 14.7568,-13.2075 l 0.0115,-30.8443 -21.6087,5.6572 -0.88,4.9055 h 6.7715 v 18.6809 a 3.8421,3.8421 0 0 1 -0.8112,2.8688 4.535,4.535 0 0 1 -2.98,0.7343 h -6.363 a 4.501,4.501 0 0 1 -2.98,-0.7343 3.8421,3.8421 0 0 1 -0.8112,-2.8688 V 300.08 a 3.8418,3.8418 0 0 1 0.8112,-2.8687 4.5343,4.5343 0 0 1 2.98,-0.7344 h 6.363 a 4.5449,4.5449 0 0 1 2.98,0.7344 3.8418,3.8418 0 0 1 0.8112,2.8687 l 0.6788,15.0779 15.01,-3.9186 z m -82.1777,38.1652 12.9963,32.8237 H 377.52 l -14.216,-33.2253 q 9.8809,-1.8676 9.8838,-12.8117 v -24.9519 q 0,-13.21 -14.7568,-13.2075 h -31.4118 v 84.1906 h 15.568 v -32.8236 h 5.1491 z m 6.0925,-39.6283 a 4.5453,4.5453 0 0 1 2.98,0.7344 3.8422,3.8422 0 0 1 0.8111,2.8687 v 21.0792 a 3.8422,3.8422 0 0 1 -0.8111,2.8687 4.5345,4.5345 0 0 1 -2.98,0.7344 h -11.2359 v -28.2854 z m -55.2416,57.1044 a 3.8418,3.8418 0 0 1 -0.8112,2.8687 4.805,4.805 0 0 1 -3.1124,0.7344 h -7.1742 a 4.5116,4.5116 0 0 1 -2.98,-0.7344 3.8418,3.8418 0 0 1 -0.8112,-2.8687 V 285.2663 H 268.13 v 70.9831 q 0,13.21 14.7568,13.2075 h 16.5173 q 14.7567,0 14.7568,-13.2075 V 285.2663 H 298.593 v 68.8488 z m -58.889,-33.5581 a 4.8054,4.8054 0 0 1 -3.1125,0.7344 h -12.3232 v -24.82 h 12.3232 a 4.8054,4.8054 0 0 1 3.1125,0.7344 3.8418,3.8418 0 0 1 0.8112,2.8687 v 17.6138 a 3.8327,3.8327 0 0 1 -0.8112,2.8687 m 0,36.96 a 4.8054,4.8054 0 0 1 -3.1125,0.7344 h -12.3232 v -25.75 h 12.3232 a 4.8054,4.8054 0 0 1 3.1125,0.7344 3.8418,3.8418 0 0 1 0.8112,2.8687 v 18.5433 a 3.8418,3.8418 0 0 1 -0.8112,2.8687 m -31.0037,11.9453 h 32.4937 q 14.7569,0 14.7568,-13.2075 V 336.507 q 0,-7.7368 -5.6841,-9.6044 5.687,-1.8675 5.6841,-10.2757 V 298.48 q 0,-13.21 -14.7568,-13.2075 h -32.4937 z m -27.35,-29.2206 -18.0073,-54.97 H 148.31 v 84.1907 h 14.3483 v -55.7725 l 18.2777,55.7733 h 14.624 v -84.1964 h -14.216 v 54.9758 z m -62.41,29.2206 h 15.568 v -84.1955 h -15.568 z m -60.5172,0 h 32.4933 q 14.7569,0 14.7568,-13.2075 V 298.48 q 0,-13.21 -14.7568,-13.2075 H 58.4169 z M 89.15,357.5174 a 4.534,4.534 0 0 1 -2.98,0.7344 H 73.9849 V 296.4772 H 86.17 a 4.5454,4.5454 0 0 1 2.98,0.7343 3.8419,3.8419 0 0 1 0.8112,2.8687 v 54.5742 a 3.835,3.835 0 0 1 -0.8112,2.863 M 22.8108,332.4048 h 17.6276 l 3.36,-12.0428 H 22.8108 v -23.3513 h 24.911 V 285.272 H 7.1047 v 84.1907 H 48.8034 V 357.7182 H 22.8108 z"
       inkscape:connector-curvature="0"
       style="fill:#232047" />
    <path
       id="path3007"
       d="m 363.7012,401.8675 a 1.5789,1.5789 0 0 1 1.03,-0.2467 h 1.2945 a 1.4615,1.4615 0 0 1 0.9838,0.2467 1.2975,1.2975 0 0 1 0.27,0.9581 v 2.3638 a 9.1943,9.1943 0 0 1 -1.5649,5.1694 l -7.2834,11.7617 v 3.6949 h 14.0722 v -3.9186 h -7.9969 l 5.8509,-10.2012 a 11.6841,11.6841 0 0 0 2.0078,-6.4144 V 402.12 q 0,-4.4062 -4.9131,-4.4121 h -4.2861 q -4.8672,0 -4.8672,4.4121 v 4.9 h 5.1376 v -4.1883 a 1.3065,1.3065 0 0 1 0.2646,-0.9638 m -39.6218,-4.1654 v 4.1424 h 8.6642 l -7.64,23.9652 h 5.27 l 7.8645,-25.0782 v -3.0294 z m -25.9064,0 h -5.1836 q -4.867,0 -4.8671,4.4121 v 6.1046 q 0,2.7626 1.8755,3.3851 -1.8726,0.6282 -1.8755,3.2072 v 6.5923 q 0,4.415 4.8671,4.412 h 5.1836 q 4.8672,0 4.8672,-4.412 v -6.5923 q 0,-2.5818 -1.8755,-3.2072 1.8726,-0.62 1.8755,-3.3851 v -6.1046 q 0.009,-4.4149 -4.8672,-4.4121 m -0.3567,23.9881 a 1.59,1.59 0 0 1 -1.03,0.2467 h -2.4106 a 1.461,1.461 0 0 1 -0.9837,-0.2467 1.2877,1.2877 0 0 1 -0.27,-0.9581 v -6.1505 a 1.2877,1.2877 0 0 1 0.27,-0.9581 1.4935,1.4935 0 0 1 0.9837,-0.2467 h 2.4106 a 1.5554,1.5554 0 0 1 1.03,0.2467 1.2877,1.2877 0 0 1 0.27,0.9581 v 6.1505 a 1.2877,1.2877 0 0 1 -0.27,0.9581 m 0,-12.0715 a 1.59,1.59 0 0 1 -1.03,0.2467 h -2.4106 a 1.461,1.461 0 0 1 -0.9837,-0.2467 1.2877,1.2877 0 0 1 -0.27,-0.9581 v -5.881 a 1.2878,1.2878 0 0 1 0.27,-0.9582 1.4941,1.4941 0 0 1 0.9837,-0.2467 h 2.4106 a 1.5554,1.5554 0 0 1 1.03,0.2467 1.2882,1.2882 0 0 1 0.27,0.9582 v 5.8808 a 1.2877,1.2877 0 0 1 -0.27,0.9581 m -41.1349,-11.9166 v 3.9187 h 3.4807 V 425.81 H 265.3 V 397.7021 z M 235.55,407.92 h -5.4482 v 6.0128 h 5.4482 z m -40.9623,-10.2183 v 3.9187 h 4.9132 V 425.81 h 5.1376 v -24.1892 h 4.9592 v -3.9187 z m -25.9926,23.9422 a 1.4615,1.4615 0 0 1 -0.9838,0.2467 h -1.6972 a 1.566,1.566 0 0 1 -1.03,-0.2467 1.2882,1.2882 0 0 1 -0.27,-0.9581 v -3.1613 h -5.1375 v 3.8785 q 0,4.415 4.8671,4.412 h 4.8269 q 4.8672,0 4.8671,-4.412 v -7.35 q 0,-4.3634 -4.6888,-4.3662 h -3.5266 a 1.566,1.566 0 0 1 -1.03,-0.2467 1.2879,1.2879 0 0 1 -0.27,-0.9581 v -5.6571 a 1.2968,1.2968 0 0 1 0.27,-0.9581 1.5786,1.5786 0 0 1 1.03,-0.2467 h 1.6972 a 1.461,1.461 0 0 1 0.9837,0.2467 1.2968,1.2968 0 0 1 0.27,0.9581 v 3.2072 h 5.1779 v -3.9186 q 0,-4.4064 -4.8212,-4.4121 h -4.9129 q -4.824,0 -4.8211,4.4121 v 6.9021 q 0,4.458 4.6025,4.458 h 3.6187 a 1.4613,1.4613 0 0 1 0.9838,0.2467 1.29,1.29 0 0 1 0.2647,0.9581 v 6.0128 a 1.307,1.307 0 0 1 -0.27,0.9523 m -38.9545,-8.2618 h 6.921 v -3.9646 h -6.921 V 401.62 h 8.2212 v -3.9187 h -13.399 V 425.81 h 13.7615 v -3.919 h -8.578 v -8.5085 z"
       inkscape:connector-curvature="0"
       style="fill:#232047" />
    <path
       id="path3009"
       d="m 7.1047,381.6431 h 483.1885 v 4.0162 H 7.1047 z"
       inkscape:connector-curvature="0"
       style="fill:#e84724" />
  </g>
</svg>
