<?xml version="1.0" encoding="utf-8"?>
<!-- Generator: Adobe Illustrator 21.1.0, SVG Export Plug-In . SVG Version: 6.00 Build 0)  -->
<svg version="1.1" id="Layer_1" xmlns="http://www.w3.org/2000/svg" xmlns:xlink="http://www.w3.org/1999/xlink" width="208.3" height="202.9"
	 viewBox="0 0 208.3 202.9" enable-background="new 0 0 208.3 202.9" xml:space="preserve">
<g>
	<g>
		<path d="M38.7,32c-2.9,10.7-4.5,26.5,8.3,31.8c20.2,8.3,36.6-2.6,43.2-9.2L38.7,32z M168.3,32l-51.5,22.7
			c6.6,6.6,23,17.5,43.2,9.2C172.7,58.6,171.1,42.8,168.3,32 M43.3,12.1c1.5,0.5,2.7,1.1,3.8,1.6c1.1,0.5,2.1,0.9,3.3,1.2
			c4.7,1.1,5.4-1.5,3.1-3.7c-2.9-2.9-8.7-5.9-16.6-6.3c-0.2,0-0.2-0.2,0-0.2c4-0.6,7.3-0.8,14.4-0.2C63.5,5.2,76.1,17.1,81.7,25
			c5.6,8,12.7,14.7,21.8,14.7c9.2,0,16.2-6.7,21.8-14.7c5.6-8,18.1-19.8,30.5-20.7c7-0.5,10.3-0.4,14.3,0.2c0.2,0,0.1,0.2,0,0.2
			c-7.8,0.4-13.7,3.4-16.6,6.3c-2.3,2.3-1.5,4.8,3.1,3.7c1.2-0.3,2.2-0.7,3.3-1.2c1.1-0.5,2.3-1,3.8-1.6c3-1,7.4-1.9,15.2-1.9
			c11.4,0,20.7,8.4,23.5,12.8c0.1,0.1,0,0.2-0.1,0.2c-1-0.1-2.4-0.2-3.8-0.3c-1.5-0.1-3.1,0-4.6,0.4c-3,0.7-5.4,2.6-5.4,7
			c0,9.3,1.5,15.6,3,21.5c0.8,3,1.5,5.8,2.1,8.9c0.6,3.1,0.9,6.4,0.9,10.2c0,6.3-1.4,11.4-3.1,15.4c-0.9,2-1.8,3.7-2.7,5.3
			c-0.9,1.5-1.7,2.8-2.4,3.8c-1.8,2.9-3.6,2.9-5.8,0.9c-7.8-6.8-25-16.4-41.9-15c-12.5,1-18.3,15.6-26.3,38.8
			c-2.7,8.1-4.5,15.8-5.8,21.6c-0.7,2.9-1.2,5.3-1.7,6.9c-0.5,1.6-0.9,2-1.4,2c-0.5,0-0.9-0.5-1.4-2c-0.5-1.6-1-4-1.7-6.9
			c-1.3-5.8-3.1-13.6-5.8-21.6c-7.9-23.2-13.8-37.8-26.3-38.8c-16.9-1.4-34.1,8.2-41.9,15c-2.2,1.9-4.1,1.9-5.8-0.9
			c-0.7-1.1-1.5-2.3-2.4-3.8c-0.9-1.5-1.8-3.3-2.7-5.3c-1.7-4-3.1-9.1-3.1-15.4c0-3.8,0.4-7.1,0.9-10.2c0.6-3.1,1.3-5.9,2.1-8.9
			c1.5-5.9,3-12.2,3-21.5c0-4.4-2.4-6.3-5.4-7c-1.5-0.4-3.1-0.4-4.6-0.4C7,22.8,5.7,23,4.7,23.1c-0.1,0-0.2-0.1-0.1-0.2
			C7.3,18.5,16.6,10.1,28,10.1C35.8,10.1,40.2,11,43.3,12.1"/>
		<path fill-rule="evenodd" clip-rule="evenodd" d="M32.4,192.4v-21.8l-6.5-6.5H10.6l-6.5,6.5v21.8l6.5,6.5H26L32.4,192.4z
			 M22.5,187.7l-1,2l-2,1H17l-2-1l-1-2v-12.9l1-2l2-1h2.5l2,1l1,2V187.7z"/>
		<polygon fill-rule="evenodd" clip-rule="evenodd" points="60.5,192.4 60.5,182.7 55.8,178 48.1,176.3 47.1,175.3 47.1,174.3 
			47.8,172.8 49.3,172.1 55.9,172.1 60.1,173.6 57,164.2 43.6,164.2 37.1,170.6 37.1,178.8 41.6,183.2 49.3,185 50.5,186.2 
			50.5,188.4 49.8,189.9 48.3,190.7 44.8,190.7 43.3,189.2 43.3,186.5 35.4,190.4 35.4,192.4 36.9,195.4 40.4,198.9 54,198.9 		"/>
		<path fill-rule="evenodd" clip-rule="evenodd" d="M91.3,180.2v-9.6l-6.5-6.5H63.2l1.2,4v26.8l-1.2,4h12.2l-1.5-4.5v-6.7l0.5-0.5
			h9.9L91.3,180.2z M81.6,176.3l-1,2l-2,1h-4.2l-0.5-0.5v-6.2l0.5-0.5h4.2l2,1l1,2V176.3z"/>
		<path fill-rule="evenodd" clip-rule="evenodd" d="M123.3,198.8l-2.7-4.7l-3.5-9.4l4.5-4.5v-9.6l-6.5-6.5H93.5l1.2,4v26.7l-1.2,4
			h11.9l-1.2-4v-7.2l0.5-0.5h2.7l1,0.5l3.7,11.1H123.3z M111.8,176.3l-1,2l-2,1h-4.2l-0.5-0.5v-6.2l0.5-0.5h4.2l2,1l1,2V176.3z"/>
		<polygon fill-rule="evenodd" clip-rule="evenodd" points="149.7,188.6 144.5,190.4 136.2,190.4 135.4,189.6 135.4,185 
			135.9,184.5 139.1,184.5 142.9,185.7 142.9,175.3 139.1,176.5 135.9,176.5 135.4,176 135.4,172.6 135.8,172.1 144.3,172.1 
			148.7,173.6 145.6,164.2 124.7,164.2 126,168.1 126,194.8 124.7,198.8 146.3,198.8 		"/>
		<polygon fill-rule="evenodd" clip-rule="evenodd" points="181.1,164.2 170.1,164.2 169.6,167.6 165.9,175.1 165.4,176.6 
			164.9,175.1 161.2,167.6 160.7,164.2 148.5,164.2 151.3,168.1 160.2,186 160.2,193.7 158.5,198.9 171.4,198.9 169.6,193.7 
			169.6,185.5 178.3,168.1 		"/>
		<polygon fill-rule="evenodd" clip-rule="evenodd" points="204.1,192.4 204.1,182.7 199.4,178 191.7,176.3 190.7,175.3 
			190.7,174.3 191.5,172.8 193,172.1 199.5,172.1 203.8,173.6 200.7,164.2 187.3,164.2 180.8,170.6 180.8,178.8 185.3,183.2 
			193,185 194.2,186.2 194.2,188.4 193.5,189.9 192,190.7 188.5,190.7 187,189.2 187,186.5 179.1,190.4 179.1,192.4 180.5,195.4 
			184,198.9 197.7,198.9 		"/>
	</g>
</g>
</svg>
